<?xml version="1.0" encoding="UTF-8" standalone="no"?>
<!-- Created with Inkscape (http://www.inkscape.org/) -->

<svg
   width="200.00018mm"
   height="200.0002mm"
   viewBox="0 0 200.00018 200.0002"
   version="1.1"
   id="svg5"
   xml:space="preserve"
   xmlns:inkscape="http://www.inkscape.org/namespaces/inkscape"
   xmlns:sodipodi="http://sodipodi.sourceforge.net/DTD/sodipodi-0.dtd"
   xmlns="http://www.w3.org/2000/svg"
   xmlns:svg="http://www.w3.org/2000/svg"><sodipodi:namedview
     id="namedview7"
     pagecolor="#ffffff"
     bordercolor="#999999"
     borderopacity="1"
     inkscape:showpageshadow="0"
     inkscape:pageopacity="0"
     inkscape:pagecheckerboard="0"
     inkscape:deskcolor="#d1d1d1"
     inkscape:document-units="mm"
     showgrid="true"
     showguides="true"><inkscape:grid
       type="xygrid"
       id="grid979" /></sodipodi:namedview><defs
     id="defs2" /><g
     inkscape:groupmode="layer"
     id="layer3"
     inkscape:label="Layer 1"><path
       id="path2078"
       style="opacity:1;fill:#000000;fill-opacity:1;stroke-width:0.132585;stroke-dasharray:none"
       d="m 100.00013,60 a 40.000014,40.000014 0 0 0 -2.989346,0.111952 40.000014,40.000014 0 0 0 -2.97228,0.334821 40.000014,40.000014 0 0 0 -2.939187,0.556139 40.000014,40.000014 0 0 0 -2.889544,0.774354 40.000014,40.000014 0 0 0 -2.823356,0.987916 40.000014,40.000014 0 0 0 -2.741654,1.196049 40.000014,40.000014 0 0 0 -2.644699,1.397716 40.000014,40.000014 0 0 0 -2.532747,1.591629 40.000014,40.000014 0 0 0 -2.406833,1.776232 40.000014,40.000014 0 0 0 -2.267217,1.951269 40.000014,40.000014 0 0 0 -2.11519,2.11519 40.000014,40.000014 0 0 0 -1.951269,2.267217 40.000014,40.000014 0 0 0 -1.776232,2.406833 40.000014,40.000014 0 0 0 -1.591629,2.532747 40.000014,40.000014 0 0 0 -1.397716,2.644699 40.000014,40.000014 0 0 0 -1.196049,2.741654 40.000014,40.000014 0 0 0 -0.987916,2.823356 40.000014,40.000014 0 0 0 -0.774354,2.889544 40.000014,40.000014 0 0 0 -0.556139,2.939187 40.000014,40.000014 0 0 0 -0.334821,2.97228 A 40.000014,40.000014 0 0 0 60,100.00013 a 40.000014,40.000014 0 0 0 0.111952,2.98909 40.000014,40.000014 0 0 0 0.334821,2.97253 40.000014,40.000014 0 0 0 0.556139,2.93919 40.000014,40.000014 0 0 0 0.774354,2.88929 40.000014,40.000014 0 0 0 0.987916,2.82361 40.000014,40.000014 0 0 0 1.196049,2.74166 40.000014,40.000014 0 0 0 1.397716,2.64469 40.000014,40.000014 0 0 0 1.591629,2.53275 40.000014,40.000014 0 0 0 1.776232,2.40683 40.000014,40.000014 0 0 0 1.951269,2.26722 40.000014,40.000014 0 0 0 2.11519,2.11519 40.000014,40.000014 0 0 0 2.267217,1.95127 40.000014,40.000014 0 0 0 2.406833,1.77623 40.000014,40.000014 0 0 0 2.532747,1.59137 40.000014,40.000014 0 0 0 2.644699,1.39772 40.000014,40.000014 0 0 0 2.741654,1.1963 40.000014,40.000014 0 0 0 2.823356,0.98792 40.000014,40.000014 0 0 0 2.889544,0.7741 40.000014,40.000014 0 0 0 2.939187,0.55614 40.000014,40.000014 0 0 0 2.97228,0.33507 40.000014,40.000014 0 0 0 2.989346,0.1117 40.000014,40.000014 0 0 0 2.98909,-0.1117 40.000014,40.000014 0 0 0 2.97253,-0.33507 40.000014,40.000014 0 0 0 2.93919,-0.55614 40.000014,40.000014 0 0 0 2.88929,-0.7741 40.000014,40.000014 0 0 0 2.82361,-0.98792 40.000014,40.000014 0 0 0 2.74165,-1.1963 40.000014,40.000014 0 0 0 2.6447,-1.39772 40.000014,40.000014 0 0 0 2.53275,-1.59137 40.000014,40.000014 0 0 0 2.40683,-1.77623 40.000014,40.000014 0 0 0 2.26722,-1.95127 40.000014,40.000014 0 0 0 2.11519,-2.11519 40.000014,40.000014 0 0 0 1.95127,-2.26722 40.000014,40.000014 0 0 0 1.77623,-2.40683 40.000014,40.000014 0 0 0 1.59137,-2.53275 40.000014,40.000014 0 0 0 1.39772,-2.64469 40.000014,40.000014 0 0 0 1.1963,-2.74166 40.000014,40.000014 0 0 0 0.98792,-2.82361 40.000014,40.000014 0 0 0 0.7741,-2.88929 40.000014,40.000014 0 0 0 0.55614,-2.93919 40.000014,40.000014 0 0 0 0.33507,-2.97253 40.000014,40.000014 0 0 0 0.1117,-2.98909 40.000014,40.000014 0 0 0 -0.0131,-1.030061 40.000014,40.000014 0 0 0 -0.0399,-1.029026 40.000014,40.000014 0 0 0 -0.0662,-1.02799 40.000014,40.000014 0 0 0 -0.0929,-1.025923 40.000014,40.000014 0 0 0 -0.11894,-1.023079 40.000014,40.000014 0 0 0 -0.14555,-1.019717 40.000014,40.000014 0 0 0 -0.17142,-1.015581 40.000014,40.000014 0 0 0 -0.19779,-1.010669 40.000014,40.000014 0 0 0 -0.22364,-1.005498 40.000014,40.000014 0 0 0 -0.2495,-0.999291 40.000014,40.000014 0 0 0 -0.27509,-0.99257 40.000014,40.000014 0 0 0 -0.30044,-0.985331 40.000014,40.000014 0 0 0 -0.32603,-0.977057 40.000014,40.000014 0 0 0 -0.35085,-0.968266 40.000014,40.000014 0 0 0 -0.37567,-0.959218 40.000014,40.000014 0 0 0 -0.40023,-0.948874 40.000014,40.000014 0 0 0 -0.42454,-0.938534 40.000014,40.000014 0 0 0 -0.44858,-0.927156 40.000014,40.000014 0 0 0 -0.47237,-0.915264 40.000014,40.000014 0 0 0 -0.4959,-0.902854 40.000014,40.000014 0 0 0 -0.51865,-0.889925 40.000014,40.000014 0 0 0 -0.54166,-0.875965 40.000014,40.000014 0 0 0 -0.5639,-0.862002 40.000014,40.000014 0 0 0 -0.58613,-0.847007 40.000014,40.000014 0 0 0 -0.60733,-0.831753 40.000014,40.000014 0 0 0 -0.62879,-0.815722 40.000014,40.000014 0 0 0 -0.64973,-0.799433 40.000014,40.000014 0 0 0 -0.6699,-0.78237 40.000014,40.000014 0 0 0 -0.68981,-0.764789 40.000014,40.000014 0 0 0 -0.70946,-0.746947 40.000014,40.000014 0 0 0 -0.72833,-0.728333 40.000014,40.000014 0 0 0 -0.74669,-0.709201 40.000014,40.000014 0 0 0 -0.76479,-0.689809 40.000014,40.000014 0 0 0 -0.78237,-0.670158 40.000014,40.000014 0 0 0 -0.79943,-0.649476 40.000014,40.000014 0 0 0 -0.81573,-0.628792 40.000014,40.000014 0 0 0 -0.83175,-0.607589 40.000014,40.000014 0 0 0 -0.84726,-0.585873 40.000014,40.000014 0 0 0 -0.86175,-0.563895 40.000014,40.000014 0 0 0 -0.87622,-0.541661 40.000014,40.000014 0 0 0 -0.88967,-0.518908 40.000014,40.000014 0 0 0 -0.90285,-0.495638 40.000014,40.000014 0 0 0 -0.91553,-0.47237 40.000014,40.000014 0 0 0 -0.92715,-0.448582 40.000014,40.000014 0 0 0 -0.93828,-0.424538 40.000014,40.000014 0 0 0 -0.94913,-0.400234 40.000014,40.000014 0 0 0 -0.95896,-0.37593 40.000014,40.000014 0 0 0 -0.96853,-0.350851 40.000014,40.000014 0 0 0 -0.97705,-0.325773 40.000014,40.000014 0 0 0 -0.98507,-0.300692 40.000014,40.000014 0 0 0 -0.99257,-0.275096 40.000014,40.000014 0 0 0 -0.9993,-0.249241 40.000014,40.000014 0 0 0 -1.00549,-0.223904 40.000014,40.000014 0 0 0 -1.01093,-0.197532 40.000014,40.000014 0 0 0 -1.01558,-0.171676 40.000014,40.000014 0 0 0 -1.01972,-0.145305 40.000014,40.000014 0 0 0 -1.02308,-0.11919 40.000014,40.000014 0 0 0 -1.02566,-0.09256 40.000014,40.000014 0 0 0 -1.02799,-0.06644 40.000014,40.000014 0 0 0 -1.02929,-0.03956 40.000014,40.000014 0 0 0 -1.0298,-0.01344 z" /><path
       id="path2650"
       style="opacity:1;fill:#000000;fill-opacity:1;stroke-width:0.264999;stroke-dasharray:none"
       d="M 100.0001,0 A 100,100 0 0 0 0,100.0001 100,100 0 0 0 100.0001,200.0002 100,100 0 0 0 200.0002,100.0001 100,100 0 0 0 100.0001,0 Z m 0,20.051489 a 79.94838,79.94838 0 0 1 2.05827,0.02687 79.94838,79.94838 0 0 1 2.05724,0.07906 79.94838,79.94838 0 0 1 2.05465,0.132808 79.94838,79.94838 0 0 1 2.05001,0.185002 79.94838,79.94838 0 0 1 2.04483,0.238228 79.94838,79.94838 0 0 1 2.03812,0.290422 79.94838,79.94838 0 0 1 2.02985,0.343131 79.94838,79.94838 0 0 1 2.02055,0.394808 79.94838,79.94838 0 0 1 2.0097,0.447518 79.94838,79.94838 0 0 1 1.99729,0.498161 79.94838,79.94838 0 0 1 1.98386,0.549837 79.94838,79.94838 0 0 1 1.96887,0.600997 79.94838,79.94838 0 0 1 1.95285,0.651123 79.94838,79.94838 0 0 1 1.9358,0.701249 79.94838,79.94838 0 0 1 1.91668,0.751376 79.94838,79.94838 0 0 1 1.89704,0.799951 79.94838,79.94838 0 0 1 1.87534,0.848527 79.94838,79.94838 0 0 1 1.85312,0.896586 79.94838,79.94838 0 0 1 1.82986,0.944128 79.94838,79.94838 0 0 1 1.80454,0.990638 79.94838,79.94838 0 0 1 1.77819,1.037146 79.94838,79.94838 0 0 1 1.75131,1.082621 79.94838,79.94838 0 0 1 1.72238,1.127063 79.94838,79.94838 0 0 1 1.69344,1.170988 79.94838,79.94838 0 0 1 1.66243,1.214396 79.94838,79.94838 0 0 1 1.63039,1.256771 79.94838,79.94838 0 0 1 1.59783,1.298112 79.94838,79.94838 0 0 1 1.56373,1.339453 79.94838,79.94838 0 0 1 1.52859,1.378727 79.94838,79.94838 0 0 1 1.49242,1.417485 79.94838,79.94838 0 0 1 1.45572,1.455725 79.94838,79.94838 0 0 1 1.418,1.492932 79.94838,79.94838 0 0 1 1.37873,1.528589 79.94838,79.94838 0 0 1 1.33894,1.563729 79.94838,79.94838 0 0 1 1.29862,1.597835 79.94838,79.94838 0 0 1 1.25678,1.630391 79.94838,79.94838 0 0 1 1.21387,1.662431 79.94838,79.94838 0 0 1 1.17151,1.69292 79.94838,79.94838 0 0 1 1.12706,1.722892 79.94838,79.94838 0 0 1 1.08262,1.750798 79.94838,79.94838 0 0 1 1.03663,1.778703 79.94838,79.94838 0 0 1 0.99116,1.804541 79.94838,79.94838 0 0 1 0.94413,1.829345 79.94838,79.94838 0 0 1 0.89658,1.853117 79.94838,79.94838 0 0 1 0.84853,1.875855 79.94838,79.94838 0 0 1 0.79995,1.896525 79.94838,79.94838 0 0 1 0.75086,1.917195 79.94838,79.94838 0 0 1 0.70125,1.935283 79.94838,79.94838 0 0 1 0.65164,1.952852 79.94838,79.94838 0 0 1 0.60048,1.969389 79.94838,79.94838 0 0 1 0.54983,1.983858 79.94838,79.94838 0 0 1 0.49868,1.997294 79.94838,79.94838 0 0 1 0.447,2.009697 79.94838,79.94838 0 0 1 0.39533,2.020032 79.94838,79.94838 0 0 1 0.34261,2.02985 79.94838,79.94838 0 0 1 0.29094,2.038118 79.94838,79.94838 0 0 1 0.23771,2.044837 79.94838,79.94838 0 0 1 0.18552,2.050521 79.94838,79.94838 0 0 1 0.13229,2.054655 79.94838,79.94838 0 0 1 0.0796,2.056722 79.94838,79.94838 0 0 1 0.0264,2.058788 79.94838,79.94838 0 0 1 -0.22324,5.97431 79.94838,79.94838 0 0 1 -0.66973,5.94124 79.94838,79.94838 0 0 1 -1.11156,5.87458 79.94838,79.94838 0 0 1 -1.54719,5.77484 79.94838,79.94838 0 0 1 -1.97456,5.64358 79.94838,79.94838 0 0 1 -2.39107,5.47977 79.94838,79.94838 0 0 1 -2.79362,5.28598 79.94838,79.94838 0 0 1 -3.18069,5.06223 79.94838,79.94838 0 0 1 -3.55017,4.81055 79.94838,79.94838 0 0 1 -3.90002,4.53151 79.94838,79.94838 0 0 1 -4.22765,4.22765 79.94838,79.94838 0 0 1 -4.53151,3.90002 79.94838,79.94838 0 0 1 -4.81055,3.55017 79.94838,79.94838 0 0 1 -5.06223,3.18069 79.94838,79.94838 0 0 1 -5.28598,2.79362 79.94838,79.94838 0 0 1 -5.47977,2.39107 79.94838,79.94838 0 0 1 -5.64358,1.97456 79.94838,79.94838 0 0 1 -5.77484,1.54719 79.94838,79.94838 0 0 1 -5.87458,1.11156 79.94838,79.94838 0 0 1 -5.94124,0.66973 79.94838,79.94838 0 0 1 -5.97431,0.22324 79.94838,79.94838 0 0 1 -5.974831,-0.22324 79.94838,79.94838 0 0 1 -5.940723,-0.66973 79.94838,79.94838 0 0 1 -5.874577,-1.11156 79.94838,79.94838 0 0 1 -5.775358,-1.54719 79.94838,79.94838 0 0 1 -5.643066,-1.97456 79.94838,79.94838 0 0 1 -5.479769,-2.39107 79.94838,79.94838 0 0 1 -5.285983,-2.79362 79.94838,79.94838 0 0 1 -5.062223,-3.18069 79.94838,79.94838 0 0 1 -4.810559,-3.55017 79.94838,79.94838 0 0 1 -4.531506,-3.90002 79.94838,79.94838 0 0 1 -4.227649,-4.22765 79.94838,79.94838 0 0 1 -3.900021,-4.53151 79.94838,79.94838 0 0 1 -3.55017,-4.81055 79.94838,79.94838 0 0 1 -3.181202,-5.06223 79.94838,79.94838 0 0 1 -2.793628,-5.28598 79.94838,79.94838 0 0 1 -2.390551,-5.47977 79.94838,79.94838 0 0 1 -1.974557,-5.64358 79.94838,79.94838 0 0 1 -1.547709,-5.77484 79.94838,79.94838 0 0 1 -1.11156,-5.87458 79.94838,79.94838 0 0 1 -0.66921,-5.94124 79.94838,79.94838 0 0 1 -0.223759,-5.97431 79.94838,79.94838 0 0 1 0.223759,-5.974828 79.94838,79.94838 0 0 1 0.66921,-5.940723 79.94838,79.94838 0 0 1 1.11156,-5.874577 79.94838,79.94838 0 0 1 1.547709,-5.775358 79.94838,79.94838 0 0 1 1.974557,-5.643066 79.94838,79.94838 0 0 1 2.390551,-5.479769 79.94838,79.94838 0 0 1 2.793628,-5.285983 79.94838,79.94838 0 0 1 3.181202,-5.062223 79.94838,79.94838 0 0 1 3.55017,-4.810559 79.94838,79.94838 0 0 1 3.900021,-4.531506 79.94838,79.94838 0 0 1 4.227649,-4.227649 79.94838,79.94838 0 0 1 4.531506,-3.900021 79.94838,79.94838 0 0 1 4.810559,-3.55017 79.94838,79.94838 0 0 1 5.062223,-3.181202 79.94838,79.94838 0 0 1 5.285983,-2.793628 79.94838,79.94838 0 0 1 5.479769,-2.390551 79.94838,79.94838 0 0 1 5.643066,-1.974557 79.94838,79.94838 0 0 1 5.775358,-1.547709 79.94838,79.94838 0 0 1 5.874577,-1.11156 79.94838,79.94838 0 0 1 5.940723,-0.66921 79.94838,79.94838 0 0 1 5.974831,-0.223759 z" /></g></svg>
