<?xml version="1.0" encoding="UTF-8" standalone="no"?>
<!-- Created with Inkscape (http://www.inkscape.org/) -->

<svg
   width="200.00018mm"
   height="200.0002mm"
   viewBox="0 0 200.00018 200.0002"
   version="1.1"
   id="svg5"
   xml:space="preserve"
   xmlns:inkscape="http://www.inkscape.org/namespaces/inkscape"
   xmlns:sodipodi="http://sodipodi.sourceforge.net/DTD/sodipodi-0.dtd"
   xmlns="http://www.w3.org/2000/svg"
   xmlns:svg="http://www.w3.org/2000/svg"><sodipodi:namedview
     id="namedview7"
     pagecolor="#ffffff"
     bordercolor="#999999"
     borderopacity="1"
     inkscape:showpageshadow="0"
     inkscape:pageopacity="0"
     inkscape:pagecheckerboard="0"
     inkscape:deskcolor="#d1d1d1"
     inkscape:document-units="mm"
     showgrid="true"
     showguides="true"><inkscape:grid
       type="xygrid"
       id="grid979" /></sodipodi:namedview><defs
     id="defs2" /><g
     inkscape:groupmode="layer"
     id="layer3"
     inkscape:label="Layer 1"><path
       id="path2078"
       style="display:none;opacity:1;fill:#000000;fill-opacity:1;stroke-width:0.0662925;stroke-dasharray:none"
       d="m 100.00007,80 a 20.000007,20.000007 0 0 0 -1.494678,0.05598 20.000007,20.000007 0 0 0 -1.48614,0.16741 20.000007,20.000007 0 0 0 -1.469594,0.27807 20.000007,20.000007 0 0 0 -1.444772,0.387177 20.000007,20.000007 0 0 0 -1.411678,0.493958 20.000007,20.000007 0 0 0 -1.370827,0.598024 20.000007,20.000007 0 0 0 -1.322349,0.698858 20.000007,20.000007 0 0 0 -1.266374,0.795815 20.000007,20.000007 0 0 0 -1.203416,0.888116 20.000007,20.000007 0 0 0 -1.133609,0.975634 20.000007,20.000007 0 0 0 -1.057595,1.057595 20.000007,20.000007 0 0 0 -0.975634,1.133609 20.000007,20.000007 0 0 0 -0.888116,1.203416 20.000007,20.000007 0 0 0 -0.795815,1.266374 20.000007,20.000007 0 0 0 -0.698858,1.322349 20.000007,20.000007 0 0 0 -0.598024,1.370827 20.000007,20.000007 0 0 0 -0.493958,1.411678 20.000007,20.000007 0 0 0 -0.387177,1.444772 20.000007,20.000007 0 0 0 -0.27807,1.469594 20.000007,20.000007 0 0 0 -0.16741,1.48614 A 20.000007,20.000007 0 0 0 80,100.00007 a 20.000007,20.000007 0 0 0 0.05598,1.49454 20.000007,20.000007 0 0 0 0.16741,1.48627 20.000007,20.000007 0 0 0 0.27807,1.46959 20.000007,20.000007 0 0 0 0.387177,1.44465 20.000007,20.000007 0 0 0 0.493958,1.4118 20.000007,20.000007 0 0 0 0.598024,1.37083 20.000007,20.000007 0 0 0 0.698858,1.32235 20.000007,20.000007 0 0 0 0.795815,1.26637 20.000007,20.000007 0 0 0 0.888116,1.20342 20.000007,20.000007 0 0 0 0.975634,1.13361 20.000007,20.000007 0 0 0 1.057595,1.05759 20.000007,20.000007 0 0 0 1.133609,0.97564 20.000007,20.000007 0 0 0 1.203416,0.88811 20.000007,20.000007 0 0 0 1.266374,0.79569 20.000007,20.000007 0 0 0 1.322349,0.69886 20.000007,20.000007 0 0 0 1.370827,0.59815 20.000007,20.000007 0 0 0 1.411678,0.49396 20.000007,20.000007 0 0 0 1.444772,0.38705 20.000007,20.000007 0 0 0 1.469594,0.27807 20.000007,20.000007 0 0 0 1.48614,0.16753 20.000007,20.000007 0 0 0 1.494674,0.0559 20.000007,20.000007 0 0 0 1.49454,-0.0559 20.000007,20.000007 0 0 0 1.48627,-0.16753 20.000007,20.000007 0 0 0 1.46959,-0.27807 20.000007,20.000007 0 0 0 1.44465,-0.38705 20.000007,20.000007 0 0 0 1.4118,-0.49396 20.000007,20.000007 0 0 0 1.37083,-0.59815 20.000007,20.000007 0 0 0 1.32235,-0.69886 20.000007,20.000007 0 0 0 1.26637,-0.79569 20.000007,20.000007 0 0 0 1.20342,-0.88811 20.000007,20.000007 0 0 0 1.13361,-0.97564 20.000007,20.000007 0 0 0 1.05759,-1.05759 20.000007,20.000007 0 0 0 0.97564,-1.13361 20.000007,20.000007 0 0 0 0.88811,-1.20342 20.000007,20.000007 0 0 0 0.79569,-1.26637 20.000007,20.000007 0 0 0 0.69886,-1.32235 20.000007,20.000007 0 0 0 0.59815,-1.37083 20.000007,20.000007 0 0 0 0.49396,-1.4118 20.000007,20.000007 0 0 0 0.38705,-1.44465 20.000007,20.000007 0 0 0 0.27807,-1.46959 20.000007,20.000007 0 0 0 0.16753,-1.48627 20.000007,20.000007 0 0 0 0.0559,-1.49454 20.000007,20.000007 0 0 0 -0.007,-0.515036 20.000007,20.000007 0 0 0 -0.0199,-0.514513 20.000007,20.000007 0 0 0 -0.0331,-0.513995 20.000007,20.000007 0 0 0 -0.0464,-0.512961 20.000007,20.000007 0 0 0 -0.0595,-0.51154 20.000007,20.000007 0 0 0 -0.0728,-0.509858 20.000007,20.000007 0 0 0 -0.0857,-0.507791 20.000007,20.000007 0 0 0 -0.0989,-0.505334 20.000007,20.000007 0 0 0 -0.11182,-0.502749 20.000007,20.000007 0 0 0 -0.12475,-0.499646 20.000007,20.000007 0 0 0 -0.13754,-0.496285 20.000007,20.000007 0 0 0 -0.15023,-0.492665 20.000007,20.000007 0 0 0 -0.16301,-0.488529 20.000007,20.000007 0 0 0 -0.17542,-0.484133 20.000007,20.000007 0 0 0 -0.18784,-0.479609 20.000007,20.000007 0 0 0 -0.20011,-0.474437 20.000007,20.000007 0 0 0 -0.21228,-0.469267 20.000007,20.000007 0 0 0 -0.22428,-0.463578 20.000007,20.000007 0 0 0 -0.23619,-0.457632 20.000007,20.000007 0 0 0 -0.24795,-0.451427 20.000007,20.000007 0 0 0 -0.25932,-0.444962 20.000007,20.000007 0 0 0 -0.27083,-0.437983 20.000007,20.000007 0 0 0 -0.28195,-0.431001 20.000007,20.000007 0 0 0 -0.29307,-0.423503 20.000007,20.000007 0 0 0 -0.30366,-0.415877 20.000007,20.000007 0 0 0 -0.3144,-0.407861 20.000007,20.000007 0 0 0 -0.32486,-0.399716 20.000007,20.000007 0 0 0 -0.33495,-0.391185 20.000007,20.000007 0 0 0 -0.34491,-0.382395 20.000007,20.000007 0 0 0 -0.35473,-0.373473 20.000007,20.000007 0 0 0 -0.36417,-0.364167 20.000007,20.000007 0 0 0 -0.37334,-0.3546 20.000007,20.000007 0 0 0 -0.38239,-0.344905 20.000007,20.000007 0 0 0 -0.39119,-0.335079 20.000007,20.000007 0 0 0 -0.39972,-0.324738 20.000007,20.000007 0 0 0 -0.40786,-0.314396 20.000007,20.000007 0 0 0 -0.41587,-0.303794 20.000007,20.000007 0 0 0 -0.42363,-0.292937 20.000007,20.000007 0 0 0 -0.43088,-0.281947 20.000007,20.000007 0 0 0 -0.43811,-0.270831 20.000007,20.000007 0 0 0 -0.44483,-0.259454 20.000007,20.000007 0 0 0 -0.45143,-0.247819 20.000007,20.000007 0 0 0 -0.45776,-0.236185 20.000007,20.000007 0 0 0 -0.46358,-0.224291 20.000007,20.000007 0 0 0 -0.46914,-0.212269 20.000007,20.000007 0 0 0 -0.47456,-0.200117 20.000007,20.000007 0 0 0 -0.47948,-0.187965 20.000007,20.000007 0 0 0 -0.48427,-0.175425 20.000007,20.000007 0 0 0 -0.48852,-0.162887 20.000007,20.000007 0 0 0 -0.49254,-0.150346 20.000007,20.000007 0 0 0 -0.49628,-0.137548 20.000007,20.000007 0 0 0 -0.49965,-0.12462 20.000007,20.000007 0 0 0 -0.50275,-0.111952 20.000007,20.000007 0 0 0 -0.50546,-0.09877 20.000007,20.000007 0 0 0 -0.50779,-0.08584 20.000007,20.000007 0 0 0 -0.50986,-0.07265 20.000007,20.000007 0 0 0 -0.51154,-0.05959 20.000007,20.000007 0 0 0 -0.51283,-0.04628 20.000007,20.000007 0 0 0 -0.514,-0.03322 20.000007,20.000007 0 0 0 -0.51464,-0.01978 20.000007,20.000007 0 0 0 -0.5149,-0.0067 z" /><path
       id="path2650"
       style="opacity:1;fill:#000000;fill-opacity:1;stroke-width:0.264999;stroke-dasharray:none"
       d="M 100.0001,0 A 100,100 0 0 0 0,100.0001 100,100 0 0 0 100.0001,200.0002 100,100 0 0 0 200.0002,100.0001 100,100 0 0 0 100.0001,0 Z m 0,20.051489 a 79.94838,79.94838 0 0 1 2.05827,0.02687 79.94838,79.94838 0 0 1 2.05724,0.07906 79.94838,79.94838 0 0 1 2.05465,0.132808 79.94838,79.94838 0 0 1 2.05001,0.185002 79.94838,79.94838 0 0 1 2.04483,0.238228 79.94838,79.94838 0 0 1 2.03812,0.290422 79.94838,79.94838 0 0 1 2.02985,0.343131 79.94838,79.94838 0 0 1 2.02055,0.394808 79.94838,79.94838 0 0 1 2.0097,0.447518 79.94838,79.94838 0 0 1 1.99729,0.498161 79.94838,79.94838 0 0 1 1.98386,0.549837 79.94838,79.94838 0 0 1 1.96887,0.600997 79.94838,79.94838 0 0 1 1.95285,0.651123 79.94838,79.94838 0 0 1 1.9358,0.701249 79.94838,79.94838 0 0 1 1.91668,0.751376 79.94838,79.94838 0 0 1 1.89704,0.799951 79.94838,79.94838 0 0 1 1.87534,0.848527 79.94838,79.94838 0 0 1 1.85312,0.896586 79.94838,79.94838 0 0 1 1.82986,0.944128 79.94838,79.94838 0 0 1 1.80454,0.990638 79.94838,79.94838 0 0 1 1.77819,1.037146 79.94838,79.94838 0 0 1 1.75131,1.082621 79.94838,79.94838 0 0 1 1.72238,1.127063 79.94838,79.94838 0 0 1 1.69344,1.170988 79.94838,79.94838 0 0 1 1.66243,1.214396 79.94838,79.94838 0 0 1 1.63039,1.256771 79.94838,79.94838 0 0 1 1.59783,1.298112 79.94838,79.94838 0 0 1 1.56373,1.339453 79.94838,79.94838 0 0 1 1.52859,1.378727 79.94838,79.94838 0 0 1 1.49242,1.417485 79.94838,79.94838 0 0 1 1.45572,1.455725 79.94838,79.94838 0 0 1 1.418,1.492932 79.94838,79.94838 0 0 1 1.37873,1.528589 79.94838,79.94838 0 0 1 1.33894,1.563729 79.94838,79.94838 0 0 1 1.29862,1.597835 79.94838,79.94838 0 0 1 1.25678,1.630391 79.94838,79.94838 0 0 1 1.21387,1.662431 79.94838,79.94838 0 0 1 1.17151,1.69292 79.94838,79.94838 0 0 1 1.12706,1.722892 79.94838,79.94838 0 0 1 1.08262,1.750798 79.94838,79.94838 0 0 1 1.03663,1.778703 79.94838,79.94838 0 0 1 0.99116,1.804541 79.94838,79.94838 0 0 1 0.94413,1.829345 79.94838,79.94838 0 0 1 0.89658,1.853117 79.94838,79.94838 0 0 1 0.84853,1.875855 79.94838,79.94838 0 0 1 0.79995,1.896525 79.94838,79.94838 0 0 1 0.75086,1.917195 79.94838,79.94838 0 0 1 0.70125,1.935283 79.94838,79.94838 0 0 1 0.65164,1.952852 79.94838,79.94838 0 0 1 0.60048,1.969389 79.94838,79.94838 0 0 1 0.54983,1.983858 79.94838,79.94838 0 0 1 0.49868,1.997294 79.94838,79.94838 0 0 1 0.447,2.009697 79.94838,79.94838 0 0 1 0.39533,2.020032 79.94838,79.94838 0 0 1 0.34261,2.02985 79.94838,79.94838 0 0 1 0.29094,2.038118 79.94838,79.94838 0 0 1 0.23771,2.044837 79.94838,79.94838 0 0 1 0.18552,2.050521 79.94838,79.94838 0 0 1 0.13229,2.054655 79.94838,79.94838 0 0 1 0.0796,2.056722 79.94838,79.94838 0 0 1 0.0264,2.058788 79.94838,79.94838 0 0 1 -0.22324,5.97431 79.94838,79.94838 0 0 1 -0.66973,5.94124 79.94838,79.94838 0 0 1 -1.11156,5.87458 79.94838,79.94838 0 0 1 -1.54719,5.77484 79.94838,79.94838 0 0 1 -1.97456,5.64358 79.94838,79.94838 0 0 1 -2.39107,5.47977 79.94838,79.94838 0 0 1 -2.79362,5.28598 79.94838,79.94838 0 0 1 -3.18069,5.06223 79.94838,79.94838 0 0 1 -3.55017,4.81055 79.94838,79.94838 0 0 1 -3.90002,4.53151 79.94838,79.94838 0 0 1 -4.22765,4.22765 79.94838,79.94838 0 0 1 -4.53151,3.90002 79.94838,79.94838 0 0 1 -4.81055,3.55017 79.94838,79.94838 0 0 1 -5.06223,3.18069 79.94838,79.94838 0 0 1 -5.28598,2.79362 79.94838,79.94838 0 0 1 -5.47977,2.39107 79.94838,79.94838 0 0 1 -5.64358,1.97456 79.94838,79.94838 0 0 1 -5.77484,1.54719 79.94838,79.94838 0 0 1 -5.87458,1.11156 79.94838,79.94838 0 0 1 -5.94124,0.66973 79.94838,79.94838 0 0 1 -5.97431,0.22324 79.94838,79.94838 0 0 1 -5.974831,-0.22324 79.94838,79.94838 0 0 1 -5.940723,-0.66973 79.94838,79.94838 0 0 1 -5.874577,-1.11156 79.94838,79.94838 0 0 1 -5.775358,-1.54719 79.94838,79.94838 0 0 1 -5.643066,-1.97456 79.94838,79.94838 0 0 1 -5.479769,-2.39107 79.94838,79.94838 0 0 1 -5.285983,-2.79362 79.94838,79.94838 0 0 1 -5.062223,-3.18069 79.94838,79.94838 0 0 1 -4.810559,-3.55017 79.94838,79.94838 0 0 1 -4.531506,-3.90002 79.94838,79.94838 0 0 1 -4.227649,-4.22765 79.94838,79.94838 0 0 1 -3.900021,-4.53151 79.94838,79.94838 0 0 1 -3.55017,-4.81055 79.94838,79.94838 0 0 1 -3.181202,-5.06223 79.94838,79.94838 0 0 1 -2.793628,-5.28598 79.94838,79.94838 0 0 1 -2.390551,-5.47977 79.94838,79.94838 0 0 1 -1.974557,-5.64358 79.94838,79.94838 0 0 1 -1.547709,-5.77484 79.94838,79.94838 0 0 1 -1.11156,-5.87458 79.94838,79.94838 0 0 1 -0.66921,-5.94124 79.94838,79.94838 0 0 1 -0.223759,-5.97431 79.94838,79.94838 0 0 1 0.223759,-5.974828 79.94838,79.94838 0 0 1 0.66921,-5.940723 79.94838,79.94838 0 0 1 1.11156,-5.874577 79.94838,79.94838 0 0 1 1.547709,-5.775358 79.94838,79.94838 0 0 1 1.974557,-5.643066 79.94838,79.94838 0 0 1 2.390551,-5.479769 79.94838,79.94838 0 0 1 2.793628,-5.285983 79.94838,79.94838 0 0 1 3.181202,-5.062223 79.94838,79.94838 0 0 1 3.55017,-4.810559 79.94838,79.94838 0 0 1 3.900021,-4.531506 79.94838,79.94838 0 0 1 4.227649,-4.227649 79.94838,79.94838 0 0 1 4.531506,-3.900021 79.94838,79.94838 0 0 1 4.810559,-3.55017 79.94838,79.94838 0 0 1 5.062223,-3.181202 79.94838,79.94838 0 0 1 5.285983,-2.793628 79.94838,79.94838 0 0 1 5.479769,-2.390551 79.94838,79.94838 0 0 1 5.643066,-1.974557 79.94838,79.94838 0 0 1 5.775358,-1.547709 79.94838,79.94838 0 0 1 5.874577,-1.11156 79.94838,79.94838 0 0 1 5.940723,-0.66921 79.94838,79.94838 0 0 1 5.974831,-0.223759 z"
       inkscape:export-filename="tag_clients.svg"
       inkscape:export-xdpi="31.749887"
       inkscape:export-ydpi="31.749887" /></g></svg>
